{"title":"Notes on a Scandal 2006 BDRip 720p Legendado PT-BR","uid":15333295,"size":4691273493,"categoryP":"video","categoryS":"hd___movies","magnet":"?xt=urn:btih:dee7558b21027c73faab1c23c39348b273be5034&amp;dn=Notes+on+a+Scandal+2006+BDRip+720p+Legendado+PT-BR&amp;tr=udp%3A%2F%2Ftracker.leechers-paradise.org%3A6969&amp;tr=udp%3A%2F%2Fzer0day.ch%3A1337&amp;tr=udp%3A%2F%2Fopen.demonii.com%3A1337&amp;tr=udp%3A%2F%2Ftracker.coppersurfer.tk%3A6969&amp;tr=udp%3A%2F%2Fexodus.desync.com%3A6969","seeders":1,"leechers":0,"uploader":null,"files":1,"time":1468759993,"description":"Audio: English\r\nSubtitles/legendas: Português, English (MKV track)\r\n\r\n===========================================\r\n\r\nA veteran high school teacher befriends a younger art teacher, who is having an affair with one of her 15-year-old students. However, her intentions with this new &quot;friend&quot; also go well beyond platonic friendship. \r\n\r\n===========================================\r\n\t\r\nBarbara Covett (Judi Dench) é uma professora solitária e dominadora, que controla com mão de ferro os alunos de uma decadente escola pública de Londres. Barbara vive apenas com seu gato, Portia, não tendo amigos nem parentes. Sua vida muda quando a escola em que trabalha contrata Sheba Hart (Cate Blanchett) como a nova professora de artes. Sheba parece ser a amiga com que Barbara sempre sonhou, atenciosa e leal. Porém quando Sheba passa a se envolver com Steven Connolly (Andrew Simpson), um de seus alunos mais jovens, esta amizade torna-se perigosa, pois Barbara ameaça revelar seu segredo para o marido dela, Richard (Bill Nighy), e para todos à sua volta.\r\n\r\n===========================================\r\n\r\nVideo\r\nID                             : 1\r\nFormat                         : AVC\r\nFormat/Info                    : Advanced Video Codec\r\nFormat profile                 :   \r\nFormat settings, CABAC         : Yes\r\nFormat settings, ReFrames      : 5 frames\r\nCodec ID                       : V_MPEG4/ISO/AVC\r\nDuration                       : 1h 31mn\r\nBit rate                       : 5 307 Kbps\r\nWidth                          : 1 280 pixels\r\nHeight                         : 696 pixels\r\nDisplay aspect ratio           : 1.85:1\r\nFrame rate mode                : Constant\r\nFrame rate                     : 23.976 fps\r\nColor space                    : YUV\r\nChroma subsampling             : 4:2:0\r\nBit depth                      : 8 bits\r\nScan type                      : Progressive\r\nBits/(Pixel*Frame)             : 0.248\r\nStream size                    : 3.31 GiB (76%)\r\n\r\n\r\nAudio\r\nID                             : 2\r\nFormat                         : DTS\r\nFormat/Info                    : Digital Theater Systems\r\nMode                           : 16\r\nFormat settings, Endianness    : Big\r\nCodec ID                       : A_DTS\r\nDuration                       : 1h 31mn\r\nBit rate mode                  : Constant\r\nBit rate                       : 1 509 Kbps\r\nChannel(s)                     : 6 channels\r\nChannel positions              : Front: L C R, Side: L R, LFE\r\nSampling rate                  : 48.0 KHz\r\nBit depth                      : 24 bits\r\nCompression mode               : Lossy\r\nStream size                    : 991 MiB (22%)\r\nLanguage                       : English\r\nDefault                        : Yes\r\nForced                         : No","torrent":{"xt":"urn:btih:dee7558b21027c73faab1c23c39348b273be5034","amp;dn":"Notes+on+a+Scandal+2006+BDRip+720p+Legendado+PT-BR","amp;tr":["udp%3A%2F%2Ftracker.leechers-paradise.org%3A6969","udp%3A%2F%2Fzer0day.ch%3A1337","udp%3A%2F%2Fopen.demonii.com%3A1337","udp%3A%2F%2Ftracker.coppersurfer.tk%3A6969","udp%3A%2F%2Fexodus.desync.com%3A6969"],"infoHash":"dee7558b21027c73faab1c23c39348b273be5034","infoHashBuffer":{"type":"Buffer","data":[222,231,85,139,33,2,124,115,250,171,28,35,195,147,72,178,115,190,80,52]},"announce":[],"urlList":[]}}